<svg xmlns="http://www.w3.org/2000/svg" xmlns:xlink="http://www.w3.org/1999/xlink" version="1.1" width="256" height="256" viewBox="0 0 256 256" xml:space="preserve">

<defs>
</defs>
<g style="stroke: none; stroke-width: 0; stroke-dasharray: none; stroke-linecap: butt; stroke-linejoin: miter; stroke-miterlimit: 10; fill: none; fill-rule: nonzero; opacity: 1;" transform="translate(1.4065934065934016 1.4065934065934016) scale(2.81 2.81)" >
	<path d="M 90 49.391 c 0 -4.574 -2.03 -8.675 -5.226 -11.478 l 2.323 -4.268 c 0.555 -1.02 0.531 -2.272 -0.062 -3.27 c -0.566 -0.953 -1.549 -1.522 -2.628 -1.522 h -8.454 l -3.11 -6.405 c -2.706 -5.574 -8.078 -9.036 -14.02 -9.036 H 31.176 c -5.941 0 -11.313 3.462 -14.02 9.036 l -3.11 6.405 H 5.592 c -1.08 0 -2.063 0.569 -2.629 1.522 c -0.592 0.998 -0.616 2.25 -0.061 3.27 l 2.323 4.268 C 2.03 40.716 0 44.816 0 49.391 c 0 4.817 2.246 9.114 5.739 11.917 c -0.019 0.077 -0.047 0.151 -0.047 0.234 v 8.677 c 0 3.512 2.726 6.369 6.077 6.369 h 5.807 c 3.351 0 6.077 -2.857 6.077 -6.369 v -5.545 h 42.695 v 5.545 c 0 3.512 2.727 6.369 6.077 6.369 h 5.807 c 3.351 0 6.077 -2.857 6.077 -6.369 v -8.677 c 0 -0.083 -0.028 -0.157 -0.047 -0.234 C 87.754 58.504 90 54.207 90 49.391 z M 84.408 30.853 c 0.528 0 0.812 0.38 0.909 0.543 c 0.237 0.4 0.246 0.883 0.024 1.292 l -2.168 3.983 c -1.332 -0.888 -2.813 -1.561 -4.393 -1.998 l -1.855 -3.82 H 84.408 z M 18.955 23.321 c 2.369 -4.879 7.052 -7.91 12.221 -7.91 h 27.648 c 5.169 0 9.852 3.031 12.221 7.91 l 5.279 10.872 c -0.528 -0.055 -1.064 -0.086 -1.607 -0.086 H 15.283 c -0.543 0 -1.079 0.031 -1.607 0.086 L 18.955 23.321 z M 4.659 32.688 c -0.223 -0.409 -0.214 -0.892 0.024 -1.292 c 0.097 -0.164 0.38 -0.544 0.909 -0.544 h 7.483 l -1.855 3.82 c -1.58 0.437 -3.062 1.11 -4.393 1.998 L 4.659 32.688 z M 2 49.391 c 0 -6.779 5.107 -12.378 11.674 -13.176 h 62.652 C 82.893 37.013 88 42.612 88 49.391 c 0 7.324 -5.959 13.283 -13.283 13.283 H 15.283 C 7.959 62.674 2 56.715 2 49.391 z M 21.652 70.219 c 0 2.409 -1.829 4.369 -4.077 4.369 h -5.807 c -2.248 0 -4.077 -1.96 -4.077 -4.369 v -7.583 c 2.24 1.289 4.828 2.038 7.592 2.038 h 6.369 V 70.219 z M 82.309 70.219 c 0 2.409 -1.829 4.369 -4.077 4.369 h -5.807 c -2.248 0 -4.077 -1.96 -4.077 -4.369 v -5.545 h 6.369 c 2.764 0 5.352 -0.749 7.592 -2.038 V 70.219 z" style="stroke: none; stroke-width: 1; stroke-dasharray: none; stroke-linecap: butt; stroke-linejoin: miter; stroke-miterlimit: 10; fill: rgb(0,0,0); fill-rule: nonzero; opacity: 1;" transform=" matrix(1 0 0 1 0 0) " stroke-linecap="round" />
	<path d="M 21.108 54.968 h -7.783 c -3.216 0 -5.833 -2.616 -5.833 -5.833 c 0 -3.216 2.617 -5.833 5.833 -5.833 h 7.783 c 3.216 0 5.833 2.617 5.833 5.833 C 26.941 52.352 24.324 54.968 21.108 54.968 z M 13.325 45.302 c -2.114 0 -3.833 1.719 -3.833 3.833 s 1.719 3.833 3.833 3.833 h 7.783 c 2.113 0 3.833 -1.72 3.833 -3.833 s -1.719 -3.833 -3.833 -3.833 H 13.325 z" style="stroke: none; stroke-width: 1; stroke-dasharray: none; stroke-linecap: butt; stroke-linejoin: miter; stroke-miterlimit: 10; fill: rgb(0,0,0); fill-rule: nonzero; opacity: 1;" transform=" matrix(1 0 0 1 0 0) " stroke-linecap="round" />
	<path d="M 76.675 54.968 h -7.783 c -3.217 0 -5.833 -2.616 -5.833 -5.833 c 0 -3.216 2.616 -5.833 5.833 -5.833 h 7.783 c 3.217 0 5.833 2.617 5.833 5.833 C 82.508 52.352 79.892 54.968 76.675 54.968 z M 68.892 45.302 c -2.113 0 -3.833 1.719 -3.833 3.833 s 1.72 3.833 3.833 3.833 h 7.783 c 2.113 0 3.833 -1.72 3.833 -3.833 s -1.72 -3.833 -3.833 -3.833 H 68.892 z" style="stroke: none; stroke-width: 1; stroke-dasharray: none; stroke-linecap: butt; stroke-linejoin: miter; stroke-miterlimit: 10; fill: rgb(0,0,0); fill-rule: nonzero; opacity: 1;" transform=" matrix(1 0 0 1 0 0) " stroke-linecap="round" />
	<path d="M 53.697 47.391 H 36.303 c -0.552 0 -1 -0.447 -1 -1 c 0 -0.552 0.448 -1 1 -1 h 17.394 c 0.553 0 1 0.448 1 1 C 54.697 46.943 54.25 47.391 53.697 47.391 z" style="stroke: none; stroke-width: 1; stroke-dasharray: none; stroke-linecap: butt; stroke-linejoin: miter; stroke-miterlimit: 10; fill: rgb(0,0,0); fill-rule: nonzero; opacity: 1;" transform=" matrix(1 0 0 1 0 0) " stroke-linecap="round" />
	<path d="M 53.697 53.391 H 36.303 c -0.552 0 -1 -0.447 -1 -1 s 0.448 -1 1 -1 h 17.394 c 0.553 0 1 0.447 1 1 S 54.25 53.391 53.697 53.391 z" style="stroke: none; stroke-width: 1; stroke-dasharray: none; stroke-linecap: butt; stroke-linejoin: miter; stroke-miterlimit: 10; fill: rgb(0,0,0); fill-rule: nonzero; opacity: 1;" transform=" matrix(1 0 0 1 0 0) " stroke-linecap="round" />
</g>
</svg>