<?xml version="1.0" encoding="UTF-8" standalone="no"?>
<svg
   xmlns="http://www.w3.org/2000/svg"
   fill="#000000"
   height="800px"
   width="800px"
   version="1.1"
   id="Capa_1"
   viewBox="0 0 459 459"
   xml:space="preserve"
>
<g transform="translate(8.0325)">
	<path
   d="M 403.99077,127.15 H 218.49864 L 168.65823,84.173 c -2.04559,-1.764 -4.95879,-1.764 -7.0053,0 l -40.00018,34.492 V 107.15 c 0,-3.313 -2.5041,-6 -5.59158,-6 H 72.260588 c -3.087475,0 -5.591564,2.687 -5.591564,6 v 58.927 l -49.166628,42.396 c -1.848944,1.595 -2.560005,4.268 -1.771594,6.669 0.78841,2.401 2.90109,4.008 5.273777,4.008 h 26.093969 v 151 c 0,3.313 2.503157,6 5.591564,6 H 403.99077 c 3.0884,0 5.59157,-2.687 5.59157,-6 v -237 c 0,-3.314 -2.50317,-6 -5.59157,-6 z m -5.59157,12 v 68 h -87.12439 l -78.85969,-68 z m -320.547048,-26 h 32.617458 v 15.158 L 77.852152,156.434 Z M 165.15605,96.547 293.42281,207.15 H 281.52396 L 168.66103,109.829 c -2.04559,-1.764 -4.95879,-1.764 -7.00531,0 L 48.793723,207.15 h -11.90444 z m 66.46413,267.603 h -33.54939 v -92 h 33.54939 z m 166.77902,0 H 242.8033 v -98 c 0,-3.313 -2.50315,-6 -5.59156,-6 h -44.73251 c -3.08841,0 -5.59157,2.687 -5.59157,6 v 98 H 58.281677 V 214.362 l 106.877163,-92.159 110.89471,95.624 c 0.9925,0.856 2.22917,1.323 3.50218,1.323 H 398.3992 Z"
/>
	<path
   d="M 155.11341,246.15 H 96.113415 c -3.313,0 -6,2.687 -6,6 v 59 c 0,3.313 2.687,6 6,6 h 58.999995 c 3.313,0 6,-2.687 6,-6 v -59 c 0,-3.314 -2.686,-6 -6,-6 z m -53,12 h 47.18902 v 47 h -47.18902 z"
/>
<path
   d="m 355.5061,246.15 h -59 c -3.313,0 -6,2.687 -6,6 v 59 c 0,3.313 2.687,6 6,6 h 59 c 3.313,0 6,-2.687 6,-6 v -59 c 0,-3.314 -2.686,-6 -6,-6 z m -53,12 h 47.18902 v 47 H 302.5061 Z"
/></g>
</svg>
