<?xml version="1.0" encoding="UTF-8" standalone="no"?>
<svg
   xmlns:dc="http://purl.org/dc/elements/1.1/"
   xmlns:cc="http://creativecommons.org/ns#"
   xmlns:rdf="http://www.w3.org/1999/02/22-rdf-syntax-ns#"
   xmlns:svg="http://www.w3.org/2000/svg"
   xmlns="http://www.w3.org/2000/svg"
   xmlns:sodipodi="http://sodipodi.sourceforge.net/DTD/sodipodi-0.dtd"
   xmlns:inkscape="http://www.inkscape.org/namespaces/inkscape"
   width="297mm"
   height="210mm"
   viewBox="0 0 297 210"
   version="1.1"
   id="svg8"
   inkscape:version="1.0.1 (3bc2e813f5, 2020-09-07)"
   sodipodi:docname="noimg3.svg">
  <defs
     id="defs2" />
  <sodipodi:namedview
     id="base"
     pagecolor="#ffffff"
     bordercolor="#666666"
     borderopacity="1.0"
     inkscape:pageopacity="0.0"
     inkscape:pageshadow="2"
     inkscape:zoom="0.49497475"
     inkscape:cx="749.77972"
     inkscape:cy="566.79029"
     inkscape:document-units="mm"
     inkscape:current-layer="svg8"
     inkscape:document-rotation="0"
     showgrid="false"
     showguides="true"
     inkscape:guide-bbox="true"
     inkscape:window-width="1920"
     inkscape:window-height="991"
     inkscape:window-x="-9"
     inkscape:window-y="-9"
     inkscape:window-maximized="1" />
  <metadata
     id="metadata5">
    <rdf:RDF>
      <cc:Work
         rdf:about="">
        <dc:format>image/svg+xml</dc:format>
        <dc:type
           rdf:resource="http://purl.org/dc/dcmitype/StillImage" />
        <dc:title></dc:title>
      </cc:Work>
    </rdf:RDF>
  </metadata>
  <path
     id="path894"
     style="display:inline;fill:none;stroke:#000000;stroke-width:8;stroke-linecap:butt;stroke-linejoin:miter;stroke-miterlimit:4;stroke-dasharray:none;stroke-opacity:1"
     d="m 191.29112,155.94117 h 65.46209 m -65.46209,-20.94789 h 65.46209 m -65.46209,-22.25711 h 65.46209 M 191.29112,90.697264 V 178.85291 M 256.75321,90.697264 V 178.85291 M 45.170521,37.05183 h 30.995763 c 4.153443,0 7.497191,3.343756 7.497191,7.497198 v 25.558634 c 0,4.153429 -3.343748,7.497199 -7.497191,7.497199 H 45.170521 c -4.153446,0 -7.497196,-3.34377 -7.497196,-7.497199 V 44.549028 c 0,-4.153442 3.34375,-7.497198 7.497196,-7.497198 z m 0,90.33772 h 30.995763 c 4.153443,0 7.497191,3.34374 7.497191,7.49717 v 25.55863 c 0,4.15344 -3.343748,7.4972 -7.497191,7.4972 H 45.170521 c -4.153446,0 -7.497196,-3.34376 -7.497196,-7.4972 v -25.55863 c 0,-4.15343 3.34375,-7.49717 7.497196,-7.49717 z M 276.82828,90.697264 H 23.271667 M 276.82828,14.324785 V 196.30947 M 23.271667,178.85291 H 276.82828 M 23.271667,14.324785 V 196.30947"
     sodipodi:nodetypes="ccccccccccsssssssssssssssssscccccccc" />
</svg>
